# xmcd
#
# Track frame offsets: 
#        150
#        20895
#        39062
#        58717
#        82600
#        106420
#
# Disc length: 1734 seconds
#
# Revision: 0
# Processed by: cddbd v1.5.2PL0 Copyright (c) Steve Scherf et al.
# Submitted via: ExactAudioCopyFreeDBPlugin 1.0
#
DISCID=3c06c406
DTITLE=Ray J - Let It Go [CDM)
DYEAR=1997
DGENRE=R&B
TTITLE0=Let It Go (LP Edit)
TTITLE1=Let It Go (Lose Control Mix W-o Rap)
TTITLE2=Let It Go (Lose Control Mix W Rap)
TTITLE3=Let It Go (Lose Control Main Mix W Rap)
TTITLE4=Let It Go (Philly Remix)
TTITLE5=Let It Go (Philly Remix Instrumental)
EXTD=
EXTT0=
EXTT1=
EXTT2=
EXTT3=
EXTT4=
EXTT5=
PLAYORDER=
